<svg width="120" height="120" viewBox="0 0 120 120" fill="none" xmlns="http://www.w3.org/2000/svg">
<g id="Vimeo">
<path id="back" fill-rule="evenodd" clip-rule="evenodd" d="M0 60C0 26.8629 26.8629 0 60 0C93.1371 0 120 26.8629 120 60C120 93.1371 93.1371 120 60 120C26.8629 120 0 93.1371 0 60Z" fill="#31AFD8"/>
<path id="Fill 4" fill-rule="evenodd" clip-rule="evenodd" d="M93.965 48.405C93.6445 55.4134 88.75 65.008 79.2807 77.189C69.4918 89.908 61.209 96.2704 54.4364 96.2704C50.2377 96.2704 46.6866 92.3988 43.7848 84.6499C41.8477 77.5469 39.9124 70.4447 37.9745 63.3417C35.8191 55.5969 33.5093 51.7203 31.0367 51.7203C30.4979 51.7203 28.6131 52.8536 25.3859 55.1103L22 50.7481C25.5536 47.627 29.0582 44.5052 32.5063 41.3792C37.2455 37.286 40.8057 35.1314 43.177 34.9147C48.7781 34.3758 52.227 38.2051 53.5214 46.4024C54.9204 55.2482 55.8894 60.7487 56.4324 62.9016C58.0498 70.2404 59.8274 73.9061 61.7677 73.9061C63.273 73.9061 65.538 71.5265 68.5569 66.7641C71.57 62.0049 73.1857 58.3833 73.4032 55.8941C73.8341 51.7867 72.2184 49.7276 68.5569 49.7276C66.8332 49.7276 65.0556 50.1245 63.2273 50.9083C66.7668 39.3201 73.5269 33.6917 83.5052 34.013C90.9029 34.2297 94.3926 39.0271 93.965 48.405" fill="#FFFFFE"/>
</g>
</svg>
