<svg width="122" height="120" viewBox="0 0 122 120" fill="none" xmlns="http://www.w3.org/2000/svg">
<g id="Youtube">
<path id="back" fill-rule="evenodd" clip-rule="evenodd" d="M0 60C0 26.8629 26.9017 0 60.0867 0C93.2717 0 120.173 26.8629 120.173 60C120.173 93.1371 93.2717 120 60.0867 120C26.9017 120 0 93.1371 0 60Z" fill="#CE1312"/>
<path id="Youtube_2" fill-rule="evenodd" clip-rule="evenodd" d="M91.36 47.9227C91.36 47.9227 90.734 43.4161 88.816 41.4316C86.382 38.8257 83.654 38.8134 82.404 38.6622C73.448 38 60.014 38 60.014 38H59.986C59.986 38 46.552 38 37.596 38.6622C36.344 38.8134 33.618 38.8257 31.182 41.4316C29.264 43.4161 28.64 47.9227 28.64 47.9227C28.64 47.9227 28 53.2162 28 58.5076V63.4699C28 68.7634 28.64 74.0548 28.64 74.0548C28.64 74.0548 29.264 78.5614 31.182 80.546C33.618 83.1518 36.816 83.0701 38.24 83.3419C43.36 83.8447 60 84 60 84C60 84 73.448 83.9796 82.404 83.3174C83.654 83.1641 86.382 83.1518 88.816 80.546C90.734 78.5614 91.36 74.0548 91.36 74.0548C91.36 74.0548 92 68.7634 92 63.4699V58.5076C92 53.2162 91.36 47.9227 91.36 47.9227V47.9227Z" fill="white"/>
<path id="Path" fill-rule="evenodd" clip-rule="evenodd" d="M53.3919 69.4828L53.3899 51.1069L70.6819 60.3266L53.3919 69.4828Z" fill="#CE1312"/>
</g>
</svg>
